<?xml version="1.0" standalone="no"?>
<!DOCTYPE svg PUBLIC "-//W3C//DTD SVG 20010904//EN"
 "http://www.w3.org/TR/2001/REC-SVG-20010904/DTD/svg10.dtd">
<svg version="1.0" xmlns="http://www.w3.org/2000/svg"
 width="1280.000000pt" height="1280.000000pt" viewBox="0 0 1280.000000 1280.000000"
 preserveAspectRatio="xMidYMid meet">
<metadata>
Created by potrace 1.16, written by Peter Selinger 2001-2019
</metadata>
<g transform="translate(0.000000,1280.000000) scale(0.100000,-0.100000)"
fill="#000000" stroke="none">
<path d="M6057 11063 c-4 -3 -7 -199 -7 -435 l0 -428 -1046 0 c-701 0 -1052
-3 -1065 -10 -10 -6 -19 -17 -19 -24 0 -18 238 -327 280 -363 43 -37 135 -95
175 -111 109 -42 87 -42 1619 -42 1627 0 1515 5 1671 -70 193 -93 343 -272
400 -480 14 -48 18 -101 18 -205 0 -129 -3 -147 -30 -227 -80 -231 -252 -401
-489 -480 -61 -20 -88 -23 -224 -23 -136 1 -163 4 -220 24 -141 50 -213 94
-311 193 -113 114 -179 251 -205 423 -14 97 -14 115 0 207 25 155 77 269 175
382 27 31 41 56 39 70 -3 21 -3 21 -383 21 l-380 0 -3 -320 c-3 -351 7 -470
54 -634 108 -372 422 -705 792 -840 158 -57 217 -66 447 -66 236 0 284 8 463
75 329 124 620 417 746 752 56 151 70 239 70 448 1 207 -6 253 -61 422 -74
231 -251 472 -459 625 -98 72 -250 151 -359 187 -161 53 -216 58 -695 63 -314
4 -447 9 -452 17 -4 6 -8 201 -8 434 l0 422 -263 0 c-145 0 -267 -3 -270 -7z"/>
<path d="M4453 9473 c-26 -10 -11 -42 70 -143 149 -188 298 -293 504 -357 l88
-27 398 -4 397 -3 -2 268 -3 268 -720 2 c-396 1 -726 -1 -732 -4z"/>
<path d="M4930 8761 c0 -5 33 -54 73 -108 92 -123 200 -228 287 -280 110 -66
215 -107 338 -132 65 -13 432 -15 432 -2 0 5 -13 38 -29 73 -51 111 -80 215
-105 378 l-11 75 -493 3 c-301 1 -492 -1 -492 -7z"/>
<path d="M8202 6612 c-10 -7 -12 -221 -9 -1098 3 -1014 4 -1093 21 -1149 44
-145 116 -263 228 -371 83 -81 151 -126 251 -166 79 -31 87 -33 222 -32 77 0
152 3 168 7 l27 7 0 231 0 231 -27 -6 c-16 -4 -60 -9 -98 -13 -59 -4 -79 -2
-121 16 -59 26 -113 77 -146 141 l-23 45 -3 538 -3 537 211 0 210 0 0 230 0
230 -207 2 -208 3 -5 303 c-4 254 -7 304 -20 312 -18 12 -450 13 -468 2z"/>
<path d="M6615 6041 c-194 -34 -351 -105 -505 -227 -251 -198 -399 -471 -430
-791 -34 -354 75 -669 317 -910 217 -217 508 -333 836 -333 147 0 346 44 520
115 16 7 17 29 17 261 0 184 -3 254 -11 254 -7 0 -57 -24 -113 -54 -159 -84
-207 -97 -361 -98 -153 0 -234 17 -340 70 -226 112 -350 300 -362 548 -7 139
12 231 70 347 56 112 180 238 287 290 173 85 379 87 548 5 99 -48 224 -176
280 -288 86 -173 85 -167 92 -830 l5 -585 245 0 245 0 3 490 c3 520 -6 724
-37 870 -46 215 -141 402 -284 560 -101 113 -282 225 -441 274 -166 51 -398
64 -581 32z"/>
<path d="M9966 6035 c-460 -87 -822 -463 -891 -927 -37 -241 -2 -478 99 -683
165 -337 473 -574 818 -630 276 -45 558 12 783 157 250 162 437 416 505 686
26 100 29 463 5 564 -45 195 -132 353 -279 506 -148 154 -332 260 -546 314
-112 28 -377 34 -494 13z m362 -470 c167 -40 326 -173 415 -350 47 -94 57
-132 64 -255 8 -143 -7 -222 -64 -339 -83 -172 -243 -304 -421 -346 -134 -33
-301 -8 -421 62 -149 86 -269 243 -316 413 -24 87 -24 252 0 340 61 231 252
426 465 475 76 18 203 18 278 0z"/>
<path d="M2580 6030 c-160 -17 -285 -54 -416 -124 -305 -162 -518 -472 -566
-820 -16 -122 -5 -403 21 -500 50 -187 140 -351 263 -477 215 -220 488 -329
829 -329 339 0 645 132 825 357 86 107 167 228 163 242 -5 13 -369 241 -385
241 -7 0 -44 -38 -82 -84 -240 -284 -523 -367 -796 -231 -171 85 -327 276
-366 450 -17 74 -15 210 4 284 48 185 222 380 412 461 158 68 367 65 510 -8
65 -33 120 -84 109 -101 -3 -6 -195 -163 -426 -347 -230 -185 -419 -340 -419
-344 0 -9 278 -333 289 -337 3 -2 144 106 312 240 168 133 437 346 597 472
160 127 291 235 292 241 0 16 -105 209 -156 285 -106 160 -323 313 -537 379
-149 46 -330 65 -477 50z"/>
<path d="M3850 5760 l0 -230 505 0 c314 0 505 -4 505 -10 0 -5 -217 -280 -482
-612 -544 -681 -591 -743 -608 -794 -8 -22 -10 -63 -7 -101 7 -87 39 -136 115
-171 l57 -27 792 -3 792 -3 6 23 c3 13 4 115 3 228 l-3 205 -502 5 c-276 3
-504 8 -507 11 -3 3 85 115 195 250 110 134 269 327 352 429 567 689 557 675
557 786 0 73 -27 132 -83 179 -77 66 -57 65 -914 65 l-773 0 0 -230z"/>
</g>
</svg>
